<svg width="12" height="14" viewBox="0 0 12 14" fill="none" xmlns="http://www.w3.org/2000/svg">
<path fill-rule="evenodd" clip-rule="evenodd" d="M6 0C3.065 0 0.685714 2.37929 0.685714 5.31429V7.59288L0 8.96431V10.9714H3.42857C3.42857 12.3916 4.57984 13.5429 6 13.5429C7.42016 13.5429 8.57143 12.3916 8.57143 10.9714H12V8.96431L11.3143 7.59288V5.31429C11.3143 2.37929 8.935 0 6 0ZM7.54286 10.9714H4.45714C4.45714 11.8235 5.1479 12.5143 6 12.5143C6.8521 12.5143 7.54286 11.8235 7.54286 10.9714ZM1.71429 5.31429C1.71429 2.94735 3.63307 1.02857 6 1.02857C8.36693 1.02857 10.2857 2.94735 10.2857 5.31429V7.83569L10.9714 9.20712V9.94286H1.02857V9.20712L1.71429 7.83569V5.31429Z" fill="white"/>
</svg>
