<svg width="20" height="19" viewBox="0 0 20 19" fill="none" xmlns="http://www.w3.org/2000/svg">
<path fill-rule="evenodd" clip-rule="evenodd" d="M2.92358 3.23514C2.33138 4.00833 2 5.09846 2 6.26667C2 7.439 2.46115 8.63591 3.24024 9.81348C4.01747 10.9882 5.07215 12.084 6.15795 13.0327C7.23993 13.9781 8.32666 14.7547 9.14525 15.2959C9.48456 15.5202 9.77612 15.703 10 15.8394C10.2239 15.703 10.5154 15.5202 10.8548 15.2959C11.6733 14.7547 12.7601 13.9781 13.842 13.0327C14.9279 12.084 15.9825 10.9882 16.7598 9.81348C17.5388 8.63591 18 7.439 18 6.26667C18 5.09667 17.6708 4.0067 17.0805 3.23435C16.5118 2.49035 15.6757 2 14.5 2C13.2968 2 12.3905 2.49713 11.7652 3.01822C11.4519 3.27926 11.2168 3.54069 11.0621 3.73407C10.9852 3.83022 10.9294 3.90794 10.895 3.95811C10.8779 3.98314 10.8661 4.00115 10.8598 4.01098C10.8576 4.01449 10.8561 4.01695 10.8552 4.01829L10.0036 5.43773L9.14664 4.02134C9.14578 4.01998 9.14419 4.01747 9.14186 4.01386C9.13547 4.00394 9.12358 3.98583 9.10623 3.9607C9.07146 3.91034 9.0152 3.83241 8.93771 3.73605C8.78185 3.54223 8.54532 3.28033 8.23091 3.01888C7.6028 2.49653 6.69628 2 5.5 2C4.3315 2 3.49462 2.48958 2.92358 3.23514ZM10 17C9.51484 17.8744 9.5146 17.8743 9.51432 17.8741L9.51153 17.8726C9.50987 17.8717 9.50768 17.8704 9.50495 17.8689C9.49948 17.8658 9.49187 17.8616 9.48219 17.8561C9.46283 17.8452 9.43516 17.8294 9.39975 17.809C9.32892 17.7682 9.22705 17.7087 9.09854 17.6316C8.84165 17.4773 8.47769 17.2521 8.04225 16.9643C7.17334 16.3898 6.01007 15.5594 4.84205 14.5388C3.67785 13.5217 2.48253 12.2929 1.57226 10.917C0.663847 9.54399 0 7.96427 0 6.26667C0 4.75154 0.424871 3.20834 1.3358 2.01902C2.26788 0.802087 3.681 0 5.5 0C7.29122 0 8.6347 0.753467 9.50971 1.48112C9.69129 1.63212 9.85409 1.78305 9.99822 1.92761C10.1418 1.78323 10.3039 1.63254 10.4848 1.48178C11.3595 0.752869 12.7032 0 14.5 0C16.3243 0 17.7382 0.801317 18.6695 2.01982C19.5792 3.20997 20 4.75333 20 6.26667C20 7.96427 19.3362 9.54399 18.4277 10.917C17.5175 12.2929 16.3221 13.5217 15.158 14.5388C13.9899 15.5594 12.8267 16.3898 11.9577 16.9643C11.5223 17.2521 11.1583 17.4773 10.9015 17.6316C10.773 17.7087 10.6711 17.7682 10.6003 17.809C10.5648 17.8294 10.5372 17.8452 10.5178 17.8561C10.5132 17.8587 10.5091 17.861 10.5055 17.863C10.5014 17.8653 10.4979 17.8673 10.4951 17.8689C10.4923 17.8704 10.4901 17.8717 10.4885 17.8726L10.4857 17.8741C10.4854 17.8743 10.4852 17.8744 10 17ZM10 17L10.4852 17.8744L10 18.1436L9.51484 17.8744L10 17Z" fill="white"/>
</svg>
