<svg width="16" height="15" viewBox="0 0 16 15" fill="none" xmlns="http://www.w3.org/2000/svg">
<path fill-rule="evenodd" clip-rule="evenodd" d="M6.74373 0C3.06468 0 0.0822144 2.96621 0.0822144 6.62522C0.0822144 10.2842 3.06468 13.2504 6.74373 13.2504C8.37769 13.2504 9.87425 12.6654 11.0332 11.6944L14.3569 15L15.1644 14.1969L11.8407 10.8913C12.817 9.73867 13.4053 8.25027 13.4053 6.62522C13.4053 2.96621 10.4228 0 6.74373 0ZM1.22419 6.62522C1.22419 3.59347 3.69537 1.13575 6.74373 1.13575C9.79209 1.13575 12.2633 3.59347 12.2633 6.62522C12.2633 9.65696 9.79209 12.1147 6.74373 12.1147C3.69537 12.1147 1.22419 9.65696 1.22419 6.62522Z" fill="#0E074A"/>
</svg>
