<svg width="8" height="6" viewBox="0 0 8 6" fill="none" xmlns="http://www.w3.org/2000/svg">
<path fill-rule="evenodd" clip-rule="evenodd" d="M3.50536 0L4.59724 1.94824L7.01072 2.27301L5.27206 3.80185L5.67179 5.95081L3.50536 4.94745L1.33893 5.95081L1.73866 3.80185L0 2.27301L2.41348 1.94824L3.50536 0ZM3.50536 1.31923L2.85137 2.48615L1.40579 2.68067L2.44718 3.59639L2.20775 4.88353L3.50536 4.28256L4.80297 4.88353L4.56354 3.59639L5.60493 2.68067L4.15935 2.48615L3.50536 1.31923Z" fill="#FFD600"/>
<path d="M4.34273 2.27988L3.60214 0.902832L2.86154 2.27988L1.19519 2.52578L2.30609 3.48479L2.12094 5.03397L3.60214 4.34545L5.08333 5.03397L4.71303 3.48479L5.82393 2.52578L4.34273 2.27988Z" fill="#FFD600"/>
</svg>
